<svg width="34" height="44" viewBox="0 0 34 44" fill="none" xmlns="http://www.w3.org/2000/svg">
<g clip-path="url(#clip0_0_323)">
<path fill-rule="evenodd" clip-rule="evenodd" d="M11.6469 25.3918C11.6469 23.5793 13.3882 20.8901 14.1623 19.5916C14.6518 18.7705 15.1292 17.7677 15.5413 16.8876C15.8166 16.2999 16.6018 14.3779 16.6529 13.7666C17.2878 14.2295 17.9236 18.137 18.0243 18.8937C18.3852 21.6079 19.6158 22.8816 19.6868 23.731C18.7172 23.731 18.4396 23.8966 17.6488 24.1183C16.1458 24.5396 14.7266 25.4062 12.829 25.4956C12.326 25.5193 12.3242 25.3918 11.6469 25.3918ZM12.4054 5.61307C12.0335 5.73144 12.1806 5.85145 11.7984 6.82122C11.6099 7.29951 11.4872 7.73013 11.28 8.26822L8.48046 15.4465C8.2781 16.007 7.91487 16.3816 7.94591 16.9371L7.95975 17.3088C7.1574 20.3344 6.48044 22.9179 5.40812 25.8011C4.946 27.0436 4.27617 28.5075 3.74291 29.587L1.89719 33.2863C1.87766 33.3119 1.84227 33.3567 1.80972 33.387C1.667 34.0893 1.84056 33.6504 1.46503 33.9255C1.52368 34.5667 1.1961 34.8403 1.27922 35.6582C2.75845 35.6582 4.26223 35.6307 5.7379 35.653L9.82651 35.8091C10.2171 34.9991 11.1692 30.7355 11.3435 30.374C18.4461 30.374 17.5145 27.3903 22.5691 28.5623L23.5427 32.7266C24.3268 36.5834 23.3309 35.1755 25.994 35.571C27.5612 35.8037 29.6271 35.5661 31.1056 35.7679C34.6921 36.2575 33.8384 36.0156 31.8787 29.7143C31.4347 28.2864 28.1763 18.6103 27.5751 18.1287H27.4842C27.3977 18.7087 27.6636 18.3958 27.0028 18.7732L24.7673 19.4133C23.2318 19.6645 21.6064 19.079 20.5939 18L19.4697 16.2339C18.1781 13.5634 17.8318 11.4893 17.1384 10.1038C16.8612 9.54981 16.7496 9.57878 16.5045 8.95429C16.165 8.08929 16.329 8.29026 15.7413 7.73095C15.1008 7.12144 14.8155 7.31283 12.7088 5.18674C12.6191 6.07198 12.7646 5.23517 12.4054 5.61307Z" fill="black"/>
<path fill-rule="evenodd" clip-rule="evenodd" d="M13.2256 4.73358L13.3172 4.88692C17.5544 5.21165 21.1114 4.4076 22.4546 8.44097C23.2092 10.7069 23.0457 13.3351 24.6631 15.7468C25.2388 16.6051 25.9054 16.9396 26.2979 17.5401C26.8138 17.7233 26.6012 17.6655 26.8049 17.9296L27.4842 18.1286H27.5751C27.3816 17.3668 27.5883 17.8741 27.2717 17.7829C26.8335 17.5639 26.5516 17.1834 26.2723 16.7397C25.4036 15.3598 25.1109 14.3121 24.8367 12.5711C24.3954 9.77044 26.1623 1.56582 19.4272 3.36656C16.4555 4.16113 17.2226 4.44072 13.2256 4.73358Z" fill="#5B94FB"/>
<path fill-rule="evenodd" clip-rule="evenodd" d="M12.4053 5.61307C12.7645 5.23517 12.619 6.07197 12.7087 5.18673C14.8154 7.31283 15.1007 7.12144 15.7412 7.73095C16.3289 8.29026 16.1649 8.08929 16.5044 8.95429C16.7495 9.57878 16.8611 9.54981 17.1383 10.1038C17.8317 11.4893 18.178 13.5634 19.4696 16.2339L20.5939 18C21.6063 19.079 23.2317 19.6644 24.7672 19.4133L27.0027 18.7732C27.6635 18.3957 27.3976 18.7087 27.4841 18.1287L26.8048 17.9297C25.8116 17.8584 25.0783 17.3093 24.25 16.9295C23.3574 16.5202 23.0186 16.1245 22.3428 15.4997C20.8796 14.1467 20.5951 13.2158 19.5546 11.4855C18.7838 10.2037 17.8406 8.48502 16.76 7.46907C15.5657 6.34639 14.3219 6.01441 13.6624 5.55726C13.2557 5.27531 13.2012 5.03022 12.6961 4.83182L12.557 4.87008C12.3305 5.30489 12.4441 4.96449 12.4053 5.61307Z" fill="#001131"/>
<path fill-rule="evenodd" clip-rule="evenodd" d="M13.0117 4.63546C12.3596 4.54545 12.7182 4.42156 12.5566 4.87007L12.6958 4.83181C12.7275 4.81666 12.7755 4.7529 12.7903 4.78499C12.8051 4.81709 12.8695 4.75148 12.8893 4.74844C12.9175 4.74412 13.2183 4.73325 13.2252 4.73368C17.2222 4.44082 16.4551 4.16123 19.4268 3.36666C26.1619 1.56592 24.395 9.77054 24.8362 12.5712C25.1105 14.3122 25.4032 15.3599 26.2719 16.7398C26.5512 17.1835 26.8331 17.564 27.2713 17.783C27.2259 17.102 27.1559 17.202 26.9273 16.6703L26.5128 15.7829C26.2993 15.5094 26.5455 15.9966 26.2629 15.3613C26.2037 15.2281 26.1928 15.1785 26.1515 15.0306C24.8633 10.4195 26.998 5.07015 24.409 2.41268C22.7876 0.748411 20.0275 1.36956 18.3833 2.19964C16.2255 3.28899 16.3992 3.97922 13.0117 4.63546Z" fill="#99BAFA"/>
<path fill-rule="evenodd" clip-rule="evenodd" d="M26.298 17.5402C25.9055 16.9397 25.239 16.6052 24.6633 15.7469C23.0458 13.3352 23.2094 10.707 22.4548 8.44107C21.1116 4.4077 17.5546 5.21176 13.3174 4.88702C15.4151 6.30538 15.841 6.20182 17.662 6.92551C18.5917 7.29502 20.565 8.88903 21.0884 9.80132C22.6713 12.5604 23.0813 16.1734 26.298 17.5402Z" fill="#0459F4"/>
<path fill-rule="evenodd" clip-rule="evenodd" d="M13.0117 4.63547C16.3992 3.97923 16.2255 3.28901 18.3833 2.19965C20.0275 1.36957 22.7876 0.748422 24.409 2.41269C26.998 5.07016 24.8633 10.4195 26.1515 15.0306C26.1928 15.1785 26.2037 15.2282 26.2629 15.3613C26.5455 15.9967 26.2993 15.5095 26.5128 15.7829C26.5128 14.9743 26.4394 14.5132 26.3981 14.0332L26.3976 9.8775C26.5697 8.90332 26.6789 9.64875 26.6666 7.88053C26.6479 5.2 27.062 2.92369 24.6803 0.794599C24.0265 0.210128 23.5242 0.0617882 22.8435 0.0276794H21.3839C19.5452 0.108016 18.4221 1.01432 17.1553 2.03789L14.6317 3.90467C14.3749 4.04201 14.1353 4.16501 13.9203 4.24889L13.0117 4.63547Z" fill="#CCDEFB"/>
<path fill-rule="evenodd" clip-rule="evenodd" d="M26.805 17.9297C26.6014 17.6656 26.8139 17.7235 26.298 17.5402C23.0813 16.1734 22.6713 12.5604 21.0883 9.80132C20.5649 8.88903 18.5917 7.29502 17.662 6.92551C15.841 6.20182 15.4151 6.30539 13.3174 4.88703L13.2257 4.73369C13.2188 4.73326 12.9181 4.74413 12.8898 4.74844C12.8701 4.75148 12.8056 4.81709 12.7908 4.785C12.7761 4.7529 12.728 4.81666 12.6963 4.83182C13.2014 5.03022 13.2559 5.27531 13.6626 5.55727C14.3221 6.01441 15.5659 6.34639 16.7602 7.46907C17.8408 8.48502 18.784 10.2037 19.5548 11.4855C20.5953 13.2158 20.8798 14.1467 22.343 15.4997C23.0188 16.1245 23.3576 16.5202 24.2502 16.9295C25.0785 17.3093 25.8118 17.8584 26.805 17.9297Z" fill="#0042BC"/>
<path fill-rule="evenodd" clip-rule="evenodd" d="M7.09529 18.1449C6.92445 18.9053 6.44177 19.4836 6.11788 20.0195C5.36566 21.2641 4.72354 22.0899 4.11902 23.3416C3.82481 23.9507 3.53185 24.4738 3.26761 25.0419C2.62805 26.417 1.40335 32.1124 1.46514 33.9256C1.84067 33.6504 1.66711 34.0893 1.80983 33.387C2.05464 31.582 7.21931 17.7828 7.95987 17.3088L7.94603 16.9371C7.47598 17.1624 7.63904 16.9766 7.32677 17.4866C7.25208 17.6085 7.24825 17.619 7.18697 17.7771C7.05234 18.1248 7.10248 17.857 7.09529 18.1449Z" fill="#E34E9C"/>
<path fill-rule="evenodd" clip-rule="evenodd" d="M1.27932 35.6582C1.1962 34.8403 1.52378 34.5667 1.46513 33.9256C1.40334 32.1123 2.62804 26.417 3.26759 25.0419C3.53184 24.4737 3.8248 23.9507 4.11901 23.3416C4.72352 22.0899 5.36565 21.2641 6.11787 20.0195C6.44176 19.4836 6.92443 18.9053 7.09528 18.1449C6.43302 18.5592 6.44619 18.7966 5.98212 19.301L4.08186 21.1912C4.05107 21.235 3.79909 21.6246 3.79375 21.6364C3.40395 22.4978 4.23869 21.3852 2.75016 24.0861C2.71388 24.152 2.679 24.2153 2.64575 24.2842L2.30554 25.1533C1.14438 28.2455 1.65987 30.5333 1.22626 32.9868C1.12736 33.5466 1.05856 33.7669 1.02196 34.3012C1.01942 34.3385 1.01594 35.0529 1.01671 35.0579C1.1273 35.7922 0.881813 35.3423 1.27932 35.6582Z" fill="#FAA7D5"/>
<path fill-rule="evenodd" clip-rule="evenodd" d="M1.80957 33.387C1.84213 33.3567 1.87752 33.3119 1.89704 33.2863L3.74276 29.587C4.27602 28.5075 4.94585 27.0436 5.40798 25.8011C6.48029 22.9179 7.15725 20.3344 7.95961 17.3088C7.21904 17.7828 2.05438 31.582 1.80957 33.387Z" fill="#74254B"/>
<path fill-rule="evenodd" clip-rule="evenodd" d="M0.0175781 43.6164L0.403125 43.2327C0.584194 43.5078 0.820745 43.6454 1.11281 43.6454C1.39322 43.6454 1.65603 43.5292 1.90235 43.2976C2.14772 43.065 2.4427 42.6532 2.78438 42.0622L4.014 39.9499C3.80664 39.9257 3.62845 39.9131 3.48048 39.9131C3.08328 39.9131 2.77659 40.012 2.56047 40.2096C2.34435 40.4073 2.23728 40.6902 2.23728 41.0574L1.67745 41.3326C1.71349 40.977 1.81377 40.6824 1.97734 40.4499C2.15743 40.1902 2.37063 40.0061 2.61599 39.8957C2.86131 39.7862 3.21667 39.7155 3.68298 39.6835C3.77646 39.6777 3.91664 39.667 4.1055 39.6515L4.68671 39.5469L4.72372 40.4926L4.88919 42.4546C4.92716 42.911 4.98169 43.2123 5.05084 43.3567C5.11994 43.501 5.24554 43.5737 5.42563 43.5737C5.45775 43.5737 5.56973 43.5679 5.75957 43.5572L5.72453 43.7442L4.41313 43.9593L4.29634 42.5583H2.74155C2.44072 43.0776 2.15644 43.441 1.88872 43.6483C1.62099 43.8557 1.30072 43.9593 0.930743 43.9593C0.578347 43.9593 0.274589 43.845 0.0175781 43.6164ZM2.86423 42.349H4.27587L4.0938 40.2164L2.86423 42.349Z" fill="black"/>
<path fill-rule="evenodd" clip-rule="evenodd" d="M6.05566 43.8547L6.47815 43.4323H6.51517C6.52395 43.4323 6.54437 43.4352 6.57456 43.441C6.60667 43.4468 6.64271 43.4497 6.68261 43.4497C6.87733 43.4497 7.02727 43.379 7.13533 43.2385C7.24241 43.097 7.33004 42.8567 7.39914 42.5156L7.92681 39.8744C7.53447 39.8744 7.21806 39.979 6.97661 40.1883C6.73517 40.3986 6.61446 40.6718 6.61446 41.0099V41.0719L6.06147 41.3394C6.11307 40.7551 6.33994 40.3278 6.74393 40.0575C7.14896 39.7872 7.7613 39.6515 8.58295 39.6515C9.22359 39.6515 9.67239 39.7125 9.92841 39.8347C10.1854 39.9577 10.314 40.1718 10.314 40.477C10.314 40.9819 9.94398 41.4121 9.2041 41.7686L9.88851 42.909C10.1319 43.315 10.312 43.5175 10.4298 43.5175C10.5593 43.5175 10.791 43.3509 11.1259 43.0166L11.0714 43.285C10.6556 43.7113 10.348 43.9245 10.1504 43.9245C9.89435 43.9245 9.61107 43.6406 9.30146 43.0718L8.65988 41.8956H8.12053L8.06892 42.1504C7.95699 42.7104 7.64154 43.1542 7.12265 43.4807L8.23736 43.503L7.84407 43.9245L6.05566 43.8547ZM8.15557 41.7211H8.91011C9.429 41.4673 9.68894 41.0768 9.68894 40.5517C9.68894 40.0681 9.34136 39.8259 8.64527 39.8259H8.53428L8.15557 41.7211Z" fill="black"/>
<path fill-rule="evenodd" clip-rule="evenodd" d="M11.6829 43.8547L12.1044 43.4361L12.1473 43.4458C12.1706 43.4487 12.2261 43.4497 12.3127 43.4497C12.524 43.4497 12.6807 43.3751 12.783 43.2259C12.8842 43.0757 12.9786 42.7841 13.0663 42.3481L13.5199 40.0701H12.7986C12.0655 40.0701 11.6994 40.3579 11.6994 40.9334C11.6994 41.0022 11.7082 41.0865 11.7257 41.1863L11.1318 41.4615C11.2117 40.9053 11.4541 40.4654 11.8591 40.1399C12.265 39.8143 12.7742 39.6515 13.3885 39.6515H14.5987C15.1448 39.6515 15.506 39.6157 15.6832 39.544C15.8604 39.4713 15.9801 39.3114 16.0424 39.0634L16.4708 38.89C16.3374 39.2417 16.0804 39.5265 15.7007 39.7436C15.32 39.9616 14.8878 40.0701 14.4049 40.0701H14.1197L13.7224 42.0496C13.6523 42.4062 13.5482 42.6862 13.4099 42.8916C13.2727 43.097 13.0566 43.2937 12.7616 43.4817L13.8627 43.5059L13.4664 43.9245L11.6829 43.8547Z" fill="black"/>
<path fill-rule="evenodd" clip-rule="evenodd" d="M16.9318 43.9593C16.4645 43.9593 16.0936 43.815 15.821 43.5253C15.5484 43.2356 15.4121 42.8432 15.4121 42.3471C15.4121 41.6039 15.6691 40.9518 16.1832 40.3898C16.6972 39.8278 17.2949 39.5469 17.9755 39.5469C18.4389 39.5469 18.8059 39.6893 19.0775 39.9742C19.3482 40.259 19.4835 40.6447 19.4835 41.133C19.4835 41.9091 19.2333 42.5738 18.7319 43.128C18.2315 43.6822 17.6308 43.9593 16.9318 43.9593ZM17.0448 43.7675C17.5393 43.7675 17.9628 43.5069 18.3152 42.9865C18.6686 42.4663 18.8458 41.8413 18.8468 41.1126C18.8458 40.1893 18.5236 39.7271 17.8801 39.7271C17.3855 39.7271 16.961 39.9848 16.6067 40.4993C16.2513 41.0138 16.0732 41.631 16.0722 42.3509C16.0732 43.2957 16.3974 43.7675 17.0448 43.7675Z" fill="black"/>
<path fill-rule="evenodd" clip-rule="evenodd" d="M21.3918 41.7735L21.5855 41.5467H21.9331L22.2582 39.9132C22.1618 39.8977 22.0937 39.8899 22.0557 39.8899C21.752 39.8899 21.493 40.0003 21.2788 40.2203C21.0647 40.4402 20.9575 40.7057 20.9575 41.0168V41.0575L20.4046 41.3278C20.4922 40.2106 21.2759 39.6515 22.7547 39.6515H22.9085L22.5328 41.5467H24.292L24.4604 40.698C24.5704 40.1399 24.7894 39.6981 25.1146 39.3725C25.4407 39.0469 25.8263 38.8842 26.2722 38.8842C26.4464 38.8842 26.6022 38.9074 26.7394 38.9549L26.4941 39.3754C26.2984 39.2107 26.1203 39.1283 25.9606 39.1283C25.7591 39.1283 25.5985 39.2126 25.4778 39.3803C25.357 39.5488 25.2538 39.8357 25.1682 40.2397L24.7116 42.3616C24.6142 42.817 24.5665 43.1183 24.5665 43.2656C24.5665 43.4604 24.6726 43.5582 24.8858 43.5582C24.9783 43.5582 25.1117 43.5505 25.285 43.535L25.2499 43.7094L23.8071 43.9594L24.2462 41.7735H22.487L22.4188 42.1107C22.3098 42.6455 22.0723 43.0815 21.7052 43.4187C21.3382 43.7559 20.9166 43.9245 20.4416 43.9245C20.0901 43.9245 19.7942 43.8169 19.5547 43.6028L19.9538 43.1949C20.1369 43.5069 20.4026 43.6629 20.7521 43.6629C21.2564 43.6629 21.5894 43.2598 21.751 42.4546L21.8883 41.7735H21.3918Z" fill="black"/>
<path fill-rule="evenodd" clip-rule="evenodd" d="M25.5674 43.5912L25.9753 43.1746C26.1671 43.4885 26.4348 43.6454 26.7765 43.6454C27.0014 43.6454 27.2 43.5505 27.3733 43.3615C27.5466 43.1726 27.6644 42.9217 27.7267 42.6096L28.266 39.9122C28.1687 39.8977 28.1015 39.8899 28.0635 39.8899C27.7501 39.8899 27.4882 40.0013 27.2789 40.2232C27.0696 40.4461 26.9654 40.7222 26.9654 41.0536L26.4115 41.3229C26.4514 40.7958 26.6636 40.385 27.0481 40.0914C27.4317 39.7979 27.9487 39.6515 28.5971 39.6515H28.8278C29.1802 40.6263 29.4372 41.6281 29.5988 42.6571L31.47 39.6515L32.0804 39.5818L31.8633 40.4926L31.3989 42.8092C31.359 43.0157 31.3386 43.1803 31.3386 43.3024C31.3386 43.4691 31.4408 43.5524 31.6452 43.5524C31.7455 43.5524 31.8818 43.5427 32.0512 43.5233L32.0161 43.7036L30.6026 43.9826L31.3415 40.2872L29.3905 43.3983L29.0965 43.4439V43.3615C29.0965 42.6213 28.9144 41.7027 28.5513 40.605L28.3176 41.7638C28.0324 43.193 27.4103 43.9071 26.4514 43.9071C26.1174 43.9071 25.8225 43.8014 25.5674 43.5912Z" fill="black"/>
</g>
<defs>
<clipPath id="clip0_0_323">
<rect width="33.5789" height="44" fill="white"/>
</clipPath>
</defs>
</svg>
