<svg width="48" height="48" viewBox="0 0 48 48" fill="none" xmlns="http://www.w3.org/2000/svg">
<path d="M30 39.099L28.9163 38.376C28.6643 38.2072 28.3365 38.2072 28.0845 38.376L26.25 39.5985L24.4163 38.376C24.1643 38.2072 23.8365 38.2072 23.5845 38.376L21.75 39.5985L19.9163 38.376C19.6643 38.2072 19.3365 38.2072 19.0845 38.376L18 39.099V22.5H16.5V40.5C16.5 40.7017 16.5825 40.8908 16.7213 41.0288L16.7197 41.0303L23.4697 47.7803C23.616 47.9265 23.808 48 24 48C24.192 48 24.384 47.9265 24.5303 47.7803L31.2803 41.0303L31.2788 41.0288C31.4175 40.8908 31.5 40.7017 31.5 40.5V26.25H30V39.099ZM19.5 39.9015L21.3337 41.124C21.5857 41.2928 21.9135 41.2928 22.1655 41.124L24 39.9015L25.8337 41.124C26.0857 41.2928 26.4135 41.2928 26.6655 41.124L28.5 39.9015L29.5725 40.6162L26.6895 43.5H21.3105L18.4275 40.617L19.5 39.9015ZM24 46.1895L22.8105 45H25.1895L24 46.1895Z" fill="white"/>
<path d="M14.3194 15.9652C14.2309 15.6937 13.9962 15.4957 13.7134 15.4545L11.5399 15.138L10.5672 13.1677C10.3152 12.6547 9.47443 12.6547 9.22243 13.1677L8.24968 15.1387L6.07618 15.4552C5.79343 15.4965 5.55943 15.6937 5.47018 15.966C5.38243 16.2367 5.45518 16.5352 5.65993 16.734L7.23343 18.2677L6.86218 20.4337C6.81418 20.715 6.92968 20.9992 7.15993 21.1672C7.39243 21.3367 7.69843 21.3577 7.95043 21.2242L9.89518 20.202L11.8399 21.2242C11.9494 21.282 12.0702 21.3105 12.1894 21.3105C12.3447 21.3105 12.4992 21.2625 12.6304 21.1672C12.8614 20.9992 12.9769 20.715 12.9282 20.4337L12.5569 18.2677L14.1304 16.734C14.3337 16.5345 14.4072 16.236 14.3194 15.9652ZM11.2272 17.4682C11.0509 17.64 10.9699 17.889 11.0119 18.132L11.1927 19.1887L10.2439 18.69C10.1344 18.6322 10.0144 18.6037 9.89443 18.6037C9.77443 18.6037 9.65518 18.6322 9.54493 18.69L8.59618 19.1887L8.77693 18.132C8.81893 17.889 8.73793 17.6407 8.56168 17.4682L7.79443 16.7205L8.85493 16.566C9.09943 16.5307 9.31018 16.377 9.41968 16.1557L9.89443 15.195L10.3692 16.1557C10.4787 16.377 10.6894 16.5307 10.9339 16.566L11.9944 16.7205L11.2272 17.4682Z" fill="white"/>
<path d="M13.5498 6.47469L13.0856 9.18294C13.0376 9.46419 13.1531 9.74844 13.3833 9.91719C13.6158 10.0852 13.9211 10.1069 14.1738 9.97344L16.6053 8.69469L19.0368 9.97344C19.1463 10.0312 19.2671 10.0597 19.3863 10.0597C19.5416 10.0597 19.6961 10.0117 19.8273 9.91719C20.0583 9.74844 20.1738 9.46419 20.1251 9.18294L19.6608 6.47469L21.6288 4.55619C21.8328 4.35669 21.9063 4.05894 21.8186 3.78819C21.7301 3.51669 21.4953 3.31869 21.2126 3.27744L18.4946 2.88219L17.2781 0.418441C17.0261 -0.0945586 16.1853 -0.0945586 15.9333 0.418441L14.7176 2.88219L11.9981 3.27744C11.7153 3.31869 11.4813 3.51594 11.3921 3.78819C11.3043 4.05894 11.3771 4.35744 11.5818 4.55619L13.5498 6.47469ZM15.3236 4.30944C15.5681 4.27419 15.7788 4.12044 15.8883 3.89919L16.6061 2.44494L17.3246 3.89919C17.4341 4.12044 17.6448 4.27419 17.8893 4.30944L19.4943 4.54344L18.3326 5.67594C18.1563 5.84769 18.0753 6.09669 18.1173 6.33969L18.3911 7.93944L16.9556 7.18419C16.8461 7.12644 16.7261 7.09794 16.6061 7.09794C16.4861 7.09794 16.3668 7.12644 16.2566 7.18419L14.8211 7.93944L15.0948 6.33969C15.1368 6.09669 15.0558 5.84844 14.8796 5.67594L13.7178 4.54344L15.3236 4.30944Z" fill="white"/>
<path d="M34.2866 11.2972L37.3796 8.28224C37.5836 8.08274 37.6571 7.78499 37.5693 7.51424C37.4808 7.24274 37.2461 7.04474 36.9633 7.00349L32.6898 6.38249L30.7781 2.51024C30.5261 1.99724 29.6853 1.99724 29.4333 2.51024L27.5216 6.38249L23.2481 7.00424C22.9653 7.04549 22.7313 7.24274 22.6421 7.51499C22.5543 7.78574 22.6271 8.08424 22.8318 8.28299L25.9248 11.298L25.1943 15.555C25.1463 15.8362 25.2618 16.1205 25.4921 16.2885C25.7246 16.4572 26.0306 16.479 26.2826 16.3455L30.1053 14.3355L33.9281 16.3455C34.0376 16.4032 34.1583 16.4317 34.2776 16.4317C34.4328 16.4317 34.5873 16.3837 34.7186 16.2885C34.9496 16.1205 35.0651 15.8362 35.0163 15.555L34.2866 11.2972ZM32.9568 10.4985C32.7806 10.6702 32.6996 10.9192 32.7416 11.1622L33.2816 14.31L30.4548 12.8242C30.3453 12.7665 30.2253 12.738 30.1053 12.738C29.9853 12.738 29.8661 12.7665 29.7558 12.8242L26.9291 14.31L27.4691 11.1622C27.5111 10.9192 27.4301 10.671 27.2538 10.4985L24.9671 8.26949L28.1268 7.80974C28.3713 7.77449 28.5821 7.62074 28.6916 7.39949L30.1053 4.53674L31.5191 7.39949C31.6286 7.62074 31.8393 7.77449 32.0838 7.80974L35.2436 8.26949L32.9568 10.4985Z" fill="white"/>
<path d="M42.8478 19.6679L40.9466 19.3919L40.0953 17.6684C39.8433 17.1554 39.0026 17.1554 38.7506 17.6684L37.9001 19.3919L35.9981 19.6679C35.7153 19.7092 35.4813 19.9064 35.3921 20.1779C35.3043 20.4494 35.3771 20.7479 35.5818 20.9467L36.9588 22.2884L36.6333 24.1829C36.5853 24.4642 36.7008 24.7484 36.9311 24.9164C37.0623 25.0117 37.2168 25.0597 37.3721 25.0597C37.4913 25.0597 37.6113 25.0312 37.7216 24.9734L39.4226 24.0794L41.1236 24.9734C41.3763 25.1069 41.6823 25.0844 41.9141 24.9172C42.1451 24.7484 42.2606 24.4642 42.2118 24.1829L41.8871 22.2884L43.2633 20.9467C43.4673 20.7472 43.5408 20.4494 43.4531 20.1779C43.3646 19.9064 43.1306 19.7084 42.8478 19.6679ZM40.5581 21.4897C40.3818 21.6614 40.3008 21.9104 40.3428 22.1534L40.4771 22.9387L39.7728 22.5682C39.6633 22.5104 39.5433 22.4819 39.4233 22.4819C39.3033 22.4819 39.1841 22.5104 39.0738 22.5682L38.3696 22.9387L38.5046 22.1534C38.5466 21.9104 38.4656 21.6622 38.2893 21.4897L37.7186 20.9332L38.5068 20.8192C38.7513 20.7839 38.9621 20.6302 39.0716 20.4089L39.4241 19.6949L39.7773 20.4089C39.8868 20.6309 40.0976 20.7839 40.3421 20.8192L41.1303 20.9332L40.5581 21.4897Z" fill="white"/>
<path d="M21.75 27.75H23.25C23.25 22.374 19.2127 18 14.25 18V19.5C18.3855 19.5 21.75 23.2013 21.75 27.75Z" fill="white"/>
<path d="M26.25 31.5H27.75C27.75 26.2148 30.1545 21.75 33 21.75V20.25C29.2148 20.25 26.25 25.1917 26.25 31.5Z" fill="white"/>
<path d="M20.25 18.75H21.75C21.75 17.0955 22.7595 15.75 24 15.75V14.25C21.9323 14.25 20.25 16.2682 20.25 18.75Z" fill="white"/>
<path d="M15 12C16.2405 12 17.25 13.3455 17.25 15H18.75C18.75 12.5182 17.0677 10.5 15 10.5V12Z" fill="white"/>
<path d="M30.75 18V16.5C27.0278 16.5 24 19.8645 24 24H25.5C25.5 20.6918 27.8558 18 30.75 18Z" fill="white"/>
<path d="M27.75 33H26.25V34.5H27.75V33Z" fill="white"/>
<path d="M25.5 25.5H24V27H25.5V25.5Z" fill="white"/>
<path d="M23.25 29.25H21.75V30.75H23.25V29.25Z" fill="white"/>
<path d="M23.25 32.25H21.75V33.75H23.25V32.25Z" fill="white"/>
<path d="M23.25 35.25H21.75V36.75H23.25V35.25Z" fill="white"/>
<path d="M10.5 22.5H9V24H10.5V22.5Z" fill="white"/>
<path d="M1.5 12H0V13.5H1.5V12Z" fill="white"/>
<path d="M7.5 9H6V10.5H7.5V9Z" fill="white"/>
<path d="M38.25 12.75H36.75V14.25H38.25V12.75Z" fill="white"/>
<path d="M46.5 7.5H45V9H46.5V7.5Z" fill="white"/>
<path d="M4.5 3.75H3V5.25H4.5V3.75Z" fill="white"/>
<path d="M9.75 3H8.25V4.5H9.75V3Z" fill="white"/>
<path d="M37.5 2.25H36V3.75H37.5V2.25Z" fill="white"/>
<path d="M42 8.25H40.5V9.75H42V8.25Z" fill="white"/>
<path d="M3 18H1.5V19.5H0V21H1.5V22.5H3V21H4.5V19.5H3V18Z" fill="white"/>
<path d="M45.75 12H44.25V13.5H42.75V15H44.25V16.5H45.75V15H47.25V13.5H45.75V12Z" fill="white"/>
<path d="M45.75 0C44.5095 0 43.5 1.0095 43.5 2.25C43.5 3.4905 44.5095 4.5 45.75 4.5C46.9905 4.5 48 3.4905 48 2.25C48 1.0095 46.9905 0 45.75 0ZM45.75 3C45.336 3 45 2.664 45 2.25C45 1.836 45.336 1.5 45.75 1.5C46.164 1.5 46.5 1.836 46.5 2.25C46.5 2.664 46.164 3 45.75 3Z" fill="white"/>
</svg>
