<svg width="48" height="48" viewBox="0 0 48 48" fill="none" xmlns="http://www.w3.org/2000/svg">
<path fill-rule="evenodd" clip-rule="evenodd" d="M0.947266 30.1614V45.2566C0.947266 46.5731 2.3512 47.6401 4.08338 47.6401C8.98618 47.6401 20.8093 47.6401 20.8093 47.6401C21.3864 47.6401 21.8547 47.2841 21.8547 46.8456C21.8547 46.407 21.3864 46.0511 20.8093 46.0511C20.8093 46.0511 8.98618 46.0511 4.08338 46.0511C3.50634 46.0511 3.03801 45.6952 3.03801 45.2566V30.1614C3.03801 29.7229 2.56968 29.367 1.99264 29.367C1.41559 29.367 0.947266 29.7229 0.947266 30.1614ZM24.9908 47.6401H43.8075C44.6396 47.6401 45.4373 47.389 46.0247 46.9417C46.6133 46.4952 46.9436 45.889 46.9436 45.2566V31.7504C46.9436 31.3118 46.4753 30.9559 45.8983 30.9559C45.3212 30.9559 44.8529 31.3118 44.8529 31.7504V45.2566C44.8529 45.4671 44.7431 45.6697 44.5466 45.8183C44.3511 45.9677 44.0845 46.0511 43.8075 46.0511H24.9908C24.4138 46.0511 23.9454 46.407 23.9454 46.8456C23.9454 47.2841 24.4138 47.6401 24.9908 47.6401ZM20.8093 45.2566H27.6043C28.1813 45.2566 28.6496 44.9007 28.6496 44.4621C28.6496 44.0236 28.1813 43.6676 27.6043 43.6676H20.8093C20.2323 43.6676 19.764 44.0236 19.764 44.4621C19.764 44.9007 20.2323 45.2566 20.8093 45.2566ZM19.2413 42.8732H29.1723C29.7494 42.8732 30.2177 42.5172 30.2177 42.0787C30.2177 41.6401 29.7494 41.2842 29.1723 41.2842H19.2413C18.6642 41.2842 18.1959 41.6401 18.1959 42.0787C18.1959 42.5172 18.6642 42.8732 19.2413 42.8732ZM17.5655 40.2641C17.761 40.4087 18.0224 40.4897 18.2952 40.4897H29.5957C29.8685 40.4897 30.1299 40.4087 30.3254 40.2641C33.8211 37.6764 37.5353 33.6921 37.5353 28.5407C37.5353 22.8586 31.447 18.2442 23.9454 18.2442C16.4439 18.2442 10.3556 22.8586 10.3556 28.5407C10.3556 33.6921 14.0698 37.6764 17.5655 40.2641ZM27.0816 38.9007C28.3078 38.9007 29.1671 38.9007 29.1671 38.9007C32.2415 36.5578 35.4445 33.0534 35.4445 28.5407C35.4445 23.7341 30.2909 19.8332 23.9454 19.8332C17.6 19.8332 12.4464 23.7341 12.4464 28.5407C12.4464 33.0534 15.6494 36.5578 18.7238 38.9007H20.8093V30.9559H18.7186C16.4104 30.9559 14.5371 29.5322 14.5371 27.778C14.5371 26.0238 16.4104 24.6001 18.7186 24.6001C21.0268 24.6001 22.9001 26.0238 22.9001 27.778V29.367H24.9908V27.778C24.9908 26.0238 26.8641 24.6001 29.1723 24.6001C31.4805 24.6001 33.3538 26.0238 33.3538 27.778C33.3538 29.5322 31.4805 30.9559 29.1723 30.9559H27.0816V38.9007ZM22.9001 30.9559V38.9007H24.9908V30.9559H22.9001ZM27.0816 29.367H29.1723C30.3264 29.367 31.2631 28.6551 31.2631 27.778C31.2631 26.9009 30.3264 26.189 29.1723 26.189C28.0182 26.189 27.0816 26.9009 27.0816 27.778V29.367ZM20.8093 29.367V27.778C20.8093 26.9009 19.8727 26.189 18.7186 26.189C17.5645 26.189 16.6278 26.9009 16.6278 27.778C16.6278 28.6551 17.5645 29.367 18.7186 29.367H20.8093ZM0.947266 7.12144V26.9835C0.947266 27.4221 1.41559 27.778 1.99264 27.778C2.56968 27.778 3.03801 27.4221 3.03801 26.9835V11.2678C3.05578 11.2813 3.07251 11.2949 3.09028 11.3084C4.46285 12.3515 6.32361 12.9371 8.26487 12.9371C13.3799 12.9371 19.764 12.9371 19.764 12.9371C20.341 12.9371 20.8093 12.5811 20.8093 12.1426C20.8093 11.704 20.341 11.3481 19.764 11.3481C19.764 11.3481 13.3799 11.3481 8.26487 11.3481C6.87871 11.3481 5.54899 10.9294 4.56843 10.185C3.58892 9.43974 3.03801 8.42916 3.03801 7.37567C3.03801 7.29066 3.03801 7.20645 3.03801 7.12144C3.03801 6.06795 3.58892 5.05737 4.56843 4.31215C5.54899 3.56772 6.87871 3.14902 8.26487 3.14902H40.6233V6.45407H8.26487C7.68782 6.45407 7.2195 6.81 7.2195 7.24855C7.2195 7.68711 7.68782 8.04304 8.26487 8.04304H40.6233V11.3481H30.8167H30.8146H23.9454C23.3684 11.3481 22.9001 11.704 22.9001 12.1426C22.9001 12.5811 23.3684 12.9371 23.9454 12.9371H43.8075C44.3846 12.9371 44.8529 13.293 44.8529 13.7315V28.1752C44.8529 28.6138 45.3212 28.9697 45.8983 28.9697C46.4753 28.9697 46.9436 28.6138 46.9436 28.1752V13.7315C46.9436 12.4151 45.5397 11.3481 43.8075 11.3481H42.7141V2.35454C42.7141 1.91599 42.2457 1.56006 41.6687 1.56006H8.26487C6.32361 1.56006 4.46285 2.14559 3.09028 3.18875C1.71771 4.2319 0.947266 5.64608 0.947266 7.12144ZM18.1865 17.615L17.1411 16.2389C16.8526 15.8592 16.2128 15.7289 15.7131 15.9481C15.2135 16.1674 15.042 16.6536 15.3305 17.0334L16.3759 18.4094C16.6644 18.7892 17.3042 18.9195 17.8039 18.7002C18.3036 18.481 18.475 17.9947 18.1865 17.615ZM31.515 18.4094L32.5604 17.0334C32.8489 16.6536 32.6774 16.1674 32.1778 15.9481C31.6781 15.7289 31.0383 15.8592 30.7498 16.2389L29.7044 17.615C29.4159 17.9947 29.5873 18.481 30.087 18.7002C30.5867 18.9195 31.2265 18.7892 31.515 18.4094ZM24.9908 16.6552V15.0663C24.9908 14.6277 24.5225 14.2718 23.9454 14.2718C23.3684 14.2718 22.9001 14.6277 22.9001 15.0663V16.6552C22.9001 17.0938 23.3684 17.4497 23.9454 17.4497C24.5225 17.4497 24.9908 17.0938 24.9908 16.6552Z" fill="white"/>
</svg>
