<svg width="48" height="48" viewBox="0 0 48 48" fill="none" xmlns="http://www.w3.org/2000/svg">
<path fill-rule="evenodd" clip-rule="evenodd" d="M42.411 42.4107C41.4723 43.3494 39.9462 43.3494 39.0075 42.4107C38.0688 41.4719 38.0688 39.9463 39.0075 39.0075C39.9462 38.0688 41.4723 38.0688 42.411 39.0075C43.3497 39.9463 43.3497 41.4719 42.411 42.4107ZM25.7017 25.7015C24.763 26.6402 23.237 26.6402 22.2982 25.7015C21.3595 24.7627 21.3595 23.2371 22.2982 22.2984C23.237 21.3596 24.763 21.3596 25.7017 22.2984C26.6405 23.2371 26.6405 24.7627 25.7017 25.7015ZM8.92268 42.481C7.98396 43.4197 6.45791 43.4197 5.51919 42.481C4.58047 41.5423 4.58047 40.016 5.51919 39.0773C6.45791 38.1385 7.98396 38.1385 8.92268 39.0773C9.8614 40.016 9.8614 41.5423 8.92268 42.481ZM8.99248 8.9923C8.05617 9.93101 6.52771 9.93101 5.58899 8.9923C4.65027 8.05357 4.65027 6.52791 5.58899 5.58918C6.52771 4.65046 8.05617 4.65046 8.99248 5.58918C9.9312 6.52791 9.9312 8.05357 8.99248 8.9923ZM39.0773 5.51886C40.016 4.58013 41.5421 4.58013 42.4808 5.51886C43.4195 6.45758 43.4195 7.98386 42.4808 8.92257C41.5421 9.86131 40.016 9.86131 39.0773 8.92257C38.1386 7.98386 38.1386 6.45758 39.0773 5.51886ZM37.6187 34.2128L30.4964 27.0907C31.6831 24.8763 31.4255 22.866 30.4964 20.9091L37.6885 13.715C40.3699 14.9907 43.665 14.5479 45.8842 12.3263C48.7052 9.50772 48.7052 4.9343 45.8842 2.11574C43.0657 -0.705246 38.4924 -0.705246 35.6738 2.11574C33.4546 4.33497 33.0093 7.62987 34.285 10.3112L27.0906 17.506C25.1337 16.5745 23.1238 16.3169 20.9094 17.506L13.7872 10.3839C14.7861 7.97692 14.6176 4.4047 12.3984 2.18546C9.57737 -0.63552 5.00411 -0.63552 2.18554 2.18546C-0.635446 5.00645 -0.635446 9.57737 2.18554 12.3984C4.40477 14.6176 7.97674 14.7859 10.3837 13.787L17.506 20.9091C16.3169 23.1235 16.5745 25.1339 17.506 27.0907L10.3115 34.2849C7.63012 33.0092 4.33497 33.4543 2.11574 35.6736C-0.705245 38.4921 -0.705245 43.0655 2.11574 45.8841C4.93431 48.7051 9.50756 48.7051 12.3261 45.8841C14.5478 43.6649 14.9907 40.37 13.715 37.6886L20.9094 30.4962C22.8663 31.4253 24.8761 31.6828 27.0906 30.4962L34.2128 37.6189C33.2163 40.0234 33.3824 43.5951 35.604 45.8144C38.4226 48.6354 42.9959 48.6354 45.8144 45.8144C48.6354 42.9958 48.6354 38.4224 45.8144 35.6038C43.5952 33.3822 40.0233 33.2139 37.6187 34.2128Z" fill="white"/>
</svg>
