<svg width="48" height="48" viewBox="0 0 48 48" fill="none" xmlns="http://www.w3.org/2000/svg">
<path fill-rule="evenodd" clip-rule="evenodd" d="M31.0584 16.9412V47.9995H0V16.9412H31.0584ZM28.2349 19.7647H2.82351V45.176H28.2349V19.7647ZM8.47047 28.2351H22.5879V25.4116H8.47047V28.2351V28.2351ZM8.47047 39.5291H22.5879V36.7056H8.47047V39.5291ZM39.5288 8.47075V39.5291H33.8818V36.7056H36.7053V11.2942H11.294V14.1177H8.47047V8.47077H39.5288V8.47075ZM19.7672 31.0586V33.8821H8.47047V31.0586H19.7672ZM48.0001 0V31.0584H42.3532V28.2348H45.1766V2.82348H19.7653V5.64694H16.9418V2.49996e-05H48.0001V0Z" fill="#D45971"/>
</svg>
