<svg width="48" height="48" viewBox="0 0 48 48" fill="none" xmlns="http://www.w3.org/2000/svg">
<g clip-path="url(#clip0_0_183)">
<path d="M12.9004 34.432L28.8624 26.742L34.8224 12.512L20.5904 18.472L12.9004 34.432ZM26.3824 25.716L17.1844 30.148L21.6164 20.948L26.3824 25.716ZM24.0004 2.40002C19.7283 2.40002 15.5522 3.66684 12.0001 6.04028C8.44798 8.41372 5.67946 11.7872 4.0446 15.7341C2.40975 19.6809 1.982 24.024 2.81544 28.214C3.64888 32.404 5.70608 36.2527 8.72689 39.2735C11.7477 42.2943 15.5965 44.3515 19.7864 45.185C23.9764 46.0184 28.3195 45.5907 32.2664 43.9558C36.2132 42.321 39.5867 39.5524 41.9601 36.0003C44.3336 32.4482 45.6004 28.2721 45.6004 24C45.594 18.2733 43.3163 12.7829 39.2669 8.73353C35.2175 4.68412 29.7271 2.40638 24.0004 2.40002ZM24.0004 43.6C20.1239 43.6 16.3344 42.4505 13.1112 40.2968C9.88802 38.1432 7.37584 35.0821 5.89236 31.5006C4.40888 27.9192 4.02074 23.9783 4.77701 20.1763C5.53328 16.3742 7.4 12.8818 10.1411 10.1407C12.8822 7.39962 16.3746 5.5329 20.1766 4.77663C23.9787 4.02036 27.9196 4.40851 31.501 5.89199C35.0824 7.37546 38.1435 9.88764 40.2972 13.1108C42.4509 16.3341 43.6004 20.1235 43.6004 24C43.5951 29.1966 41.5284 34.1789 37.8538 37.8535C34.1793 41.528 29.197 43.5947 24.0004 43.6Z" fill="white"/>
</g>
<defs>
<clipPath id="clip0_0_183">
<rect width="48" height="48" fill="white"/>
</clipPath>
</defs>
</svg>
