<svg width="48" height="48" viewBox="0 0 48 48" fill="none" xmlns="http://www.w3.org/2000/svg">
<g clip-path="url(#clip0_0_286)">
<path d="M46.8 0.818176H1.46672C1.09872 0.818176 0.800049 1.12363 0.800049 1.49999V31.2682C0.800049 31.6445 1.09872 31.95 1.46672 31.95H15.684L12.2107 44.1109C12.0187 44.7818 12.0947 45.4882 12.424 46.1004C12.752 46.7127 13.2947 47.1573 13.9507 47.3509C14.1867 47.4218 14.4254 47.4545 14.6614 47.4545C15.768 47.4545 16.7907 46.7127 17.116 45.5741L21.0067 31.9473H25.9267L29.8187 45.5741C30.144 46.7127 31.1667 47.4545 32.2734 47.4545C32.508 47.4545 32.7467 47.4218 32.9841 47.3509C33.64 47.1559 34.1827 46.7127 34.5107 46.1004C34.84 45.4882 34.916 44.7818 34.7241 44.1109L31.2507 31.95H46.8C47.168 31.95 47.4667 31.6445 47.4667 31.2682V1.49999C47.4667 1.12363 47.168 0.818176 46.8 0.818176ZM46.1334 2.18181V26.7436H16.244V24C16.244 23.6236 15.9454 23.3182 15.5774 23.3182H7.46672C7.09872 23.3182 6.80005 23.6236 6.80005 24V26.7436H2.13338V2.18181H46.1334ZM14.9107 26.7436H8.13338V24.6818H14.9107V26.7436ZM15.8347 45.1936C15.6467 45.8536 14.9667 46.2327 14.3214 46.0432C14.008 45.9505 13.7494 45.7377 13.592 45.4445C13.4347 45.1514 13.3974 44.8145 13.4894 44.4927L17.0734 31.9486H19.6174L15.8347 45.1936ZM33.4427 44.4941C33.5347 44.8145 33.4987 45.1527 33.34 45.4459C33.1827 45.7391 32.924 45.9518 32.6107 46.0445C31.9654 46.2314 31.284 45.855 31.0974 45.195L27.3147 31.9514H29.8587L33.4427 44.4941ZM30.3601 30.5864H26.4267H20.5067H16.5734H2.13338V28.1073H7.46672H15.5774H46.1334V30.5864H30.3601Z" fill="#D45971"/>
</g>
<defs>
<clipPath id="clip0_0_286">
<rect width="48" height="48" fill="white"/>
</clipPath>
</defs>
</svg>
