<svg width="48" height="48" viewBox="0 0 48 48" fill="none" xmlns="http://www.w3.org/2000/svg">
<path fill-rule="evenodd" clip-rule="evenodd" d="M0.947388 30.1614V45.2566C0.947388 46.5731 2.35132 47.6401 4.0835 47.6401C8.9863 47.6401 20.8095 47.6401 20.8095 47.6401C21.3865 47.6401 21.8548 47.2841 21.8548 46.8456C21.8548 46.407 21.3865 46.0511 20.8095 46.0511C20.8095 46.0511 8.9863 46.0511 4.0835 46.0511C3.50646 46.0511 3.03813 45.6952 3.03813 45.2566V30.1614C3.03813 29.7229 2.56981 29.367 1.99276 29.367C1.41571 29.367 0.947388 29.7229 0.947388 30.1614ZM24.9909 47.6401H43.8076C44.6398 47.6401 45.4374 47.389 46.0249 46.9417C46.6134 46.4952 46.9438 45.889 46.9438 45.2566V31.7504C46.9438 31.3118 46.4754 30.9559 45.8984 30.9559C45.3213 30.9559 44.853 31.3118 44.853 31.7504V45.2566C44.853 45.4671 44.7432 45.6697 44.5467 45.8183C44.3512 45.9677 44.0847 46.0511 43.8076 46.0511H24.9909C24.4139 46.0511 23.9456 46.407 23.9456 46.8456C23.9456 47.2841 24.4139 47.6401 24.9909 47.6401ZM20.8095 45.2566H27.6044C28.1814 45.2566 28.6497 44.9007 28.6497 44.4621C28.6497 44.0236 28.1814 43.6676 27.6044 43.6676H20.8095C20.2324 43.6676 19.7641 44.0236 19.7641 44.4621C19.7641 44.9007 20.2324 45.2566 20.8095 45.2566ZM19.2414 42.8732H29.1724C29.7495 42.8732 30.2178 42.5172 30.2178 42.0787C30.2178 41.6401 29.7495 41.2842 29.1724 41.2842H19.2414C18.6644 41.2842 18.196 41.6401 18.196 42.0787C18.196 42.5172 18.6644 42.8732 19.2414 42.8732ZM17.5657 40.2641C17.7612 40.4087 18.0225 40.4897 18.2953 40.4897H29.5958C29.8686 40.4897 30.13 40.4087 30.3255 40.2641C33.8212 37.6764 37.5354 33.6921 37.5354 28.5407C37.5354 22.8586 31.4472 18.2442 23.9456 18.2442C16.444 18.2442 10.3557 22.8586 10.3557 28.5407C10.3557 33.6921 14.0699 37.6764 17.5657 40.2641ZM27.0817 38.9007C28.3079 38.9007 29.1672 38.9007 29.1672 38.9007C32.2416 36.5578 35.4447 33.0534 35.4447 28.5407C35.4447 23.7341 30.291 19.8332 23.9456 19.8332C17.6002 19.8332 12.4465 23.7341 12.4465 28.5407C12.4465 33.0534 15.6495 36.5578 18.7239 38.9007H20.8095V30.9559H18.7187C16.4105 30.9559 14.5372 29.5322 14.5372 27.778C14.5372 26.0238 16.4105 24.6001 18.7187 24.6001C21.0269 24.6001 22.9002 26.0238 22.9002 27.778V29.367H24.9909V27.778C24.9909 26.0238 26.8643 24.6001 29.1724 24.6001C31.4806 24.6001 33.3539 26.0238 33.3539 27.778C33.3539 29.5322 31.4806 30.9559 29.1724 30.9559H27.0817V38.9007ZM22.9002 30.9559V38.9007H24.9909V30.9559H22.9002ZM27.0817 29.367H29.1724C30.3265 29.367 31.2632 28.6551 31.2632 27.778C31.2632 26.9009 30.3265 26.189 29.1724 26.189C28.0183 26.189 27.0817 26.9009 27.0817 27.778V29.367ZM20.8095 29.367V27.778C20.8095 26.9009 19.8728 26.189 18.7187 26.189C17.5646 26.189 16.628 26.9009 16.628 27.778C16.628 28.6551 17.5646 29.367 18.7187 29.367H20.8095ZM0.947388 7.12144V26.9835C0.947388 27.4221 1.41571 27.778 1.99276 27.778C2.56981 27.778 3.03813 27.4221 3.03813 26.9835V11.2678C3.0559 11.2813 3.07263 11.2949 3.0904 11.3084C4.46297 12.3515 6.32374 12.9371 8.26499 12.9371C13.38 12.9371 19.7641 12.9371 19.7641 12.9371C20.3411 12.9371 20.8095 12.5811 20.8095 12.1426C20.8095 11.704 20.3411 11.3481 19.7641 11.3481C19.7641 11.3481 13.38 11.3481 8.26499 11.3481C6.87883 11.3481 5.54912 10.9294 4.56856 10.185C3.58904 9.43974 3.03813 8.42916 3.03813 7.37567C3.03813 7.29066 3.03813 7.20645 3.03813 7.12144C3.03813 6.06795 3.58904 5.05737 4.56856 4.31215C5.54912 3.56772 6.87883 3.14902 8.26499 3.14902H40.6234V6.45407H8.26499C7.68795 6.45407 7.21962 6.81 7.21962 7.24855C7.21962 7.68711 7.68795 8.04304 8.26499 8.04304H40.6234V11.3481H30.8168H30.8147H23.9456C23.3685 11.3481 22.9002 11.704 22.9002 12.1426C22.9002 12.5811 23.3685 12.9371 23.9456 12.9371H43.8076C44.3847 12.9371 44.853 13.293 44.853 13.7315V28.1752C44.853 28.6138 45.3213 28.9697 45.8984 28.9697C46.4754 28.9697 46.9438 28.6138 46.9438 28.1752V13.7315C46.9438 12.4151 45.5398 11.3481 43.8076 11.3481H42.7142V2.35454C42.7142 1.91599 42.2459 1.56006 41.6688 1.56006H8.26499C6.32374 1.56006 4.46297 2.14559 3.0904 3.18875C1.71783 4.2319 0.947388 5.64608 0.947388 7.12144ZM18.1866 17.615L17.1412 16.2389C16.8527 15.8592 16.213 15.7289 15.7133 15.9481C15.2136 16.1674 15.0421 16.6536 15.3307 17.0334L16.376 18.4094C16.6646 18.7892 17.3043 18.9195 17.804 18.7002C18.3037 18.481 18.4751 17.9947 18.1866 17.615ZM31.5151 18.4094L32.5605 17.0334C32.849 16.6536 32.6776 16.1674 32.1779 15.9481C31.6782 15.7289 31.0384 15.8592 30.7499 16.2389L29.7045 17.615C29.416 17.9947 29.5874 18.481 30.0871 18.7002C30.5868 18.9195 31.2266 18.7892 31.5151 18.4094ZM24.9909 16.6552V15.0663C24.9909 14.6277 24.5226 14.2718 23.9456 14.2718C23.3685 14.2718 22.9002 14.6277 22.9002 15.0663V16.6552C22.9002 17.0938 23.3685 17.4497 23.9456 17.4497C24.5226 17.4497 24.9909 17.0938 24.9909 16.6552Z" fill="#D45971"/>
</svg>
