<svg width="48" height="48" viewBox="0 0 48 48" fill="none" xmlns="http://www.w3.org/2000/svg">
<g clip-path="url(#clip0_0_579)">
<path d="M2.53852 18.5357C2.75758 18.7606 2.98863 18.9752 3.23082 19.1786V45.4286C3.23082 45.9969 3.47396 46.542 3.90673 46.9438C4.33951 47.3457 4.92648 47.5714 5.53852 47.5714H42.4616C43.0736 47.5714 43.6606 47.3457 44.0934 46.9438C44.5262 46.542 44.7693 45.9969 44.7693 45.4286V19.1829C45.0115 18.9795 45.2425 18.7649 45.4616 18.54C46.3346 17.5079 46.9407 16.3034 47.2331 15.0194C47.5256 13.7355 47.4967 12.4063 47.1485 11.1343L44.7001 2.05287C44.5755 1.58909 44.2875 1.1773 43.8819 0.882981C43.4763 0.588663 42.9764 0.428721 42.4616 0.428589H5.53852C5.02376 0.428721 4.52382 0.588663 4.11822 0.882981C3.71261 1.1773 3.42463 1.58909 3.30006 2.05287L0.858517 11.13C0.509416 12.4015 0.479342 13.7304 0.770612 15.0144C1.06188 16.2983 1.66672 17.5031 2.53852 18.5357ZM26.3077 43.2857H21.6924V32.5714H26.3077V43.2857ZM40.1539 43.2857H30.9231V30.4286C30.9231 29.8603 30.68 29.3152 30.2472 28.9134C29.8144 28.5115 29.2275 28.2857 28.6154 28.2857H19.3847C18.7726 28.2857 18.1857 28.5115 17.7529 28.9134C17.3201 29.3152 17.077 29.8603 17.077 30.4286V43.2857H7.84621V21.6429C9.48011 21.9892 11.1849 21.9149 12.7766 21.4277C14.3683 20.9406 15.7866 20.0592 16.8785 18.8786C16.9385 18.9429 17.0008 19.005 17.0631 19.0693C17.9606 19.9642 19.0499 20.6745 20.2609 21.1547C21.472 21.6349 22.778 21.8742 24.0947 21.8572C25.3804 21.8562 26.652 21.6082 27.8296 21.1287C29.0071 20.6493 30.0651 19.9489 30.937 19.0714C30.9993 19.0072 31.0616 18.945 31.1216 18.8807C32.2138 20.0609 33.6322 20.9419 35.2239 21.4287C36.8156 21.9154 38.5202 21.9895 40.1539 21.6429V43.2857ZM5.33313 12.1693L7.34083 4.7143H40.6593L42.667 12.1693C42.8395 12.8104 42.8525 13.4796 42.7048 14.126C42.557 14.7724 42.2526 15.3791 41.8146 15.8999C41.3765 16.4207 40.8164 16.8419 40.1767 17.1315C39.5371 17.4212 38.8348 17.5716 38.1231 17.5714C36.9514 17.5645 35.8246 17.1523 34.9626 16.4153C34.1007 15.6783 33.5655 14.6695 33.4616 13.5857L33.3647 12.5143C33.3082 11.9521 33.015 11.4333 32.5489 11.0708C32.0828 10.7082 31.4814 10.5311 30.8754 10.5779C30.2694 10.6248 29.7079 10.8918 29.3128 11.321C28.9177 11.7502 28.721 12.3069 28.7654 12.87C28.8214 13.4684 28.7416 14.071 28.5314 14.6391C28.3211 15.2071 27.985 15.7279 27.5447 16.1679C27.0815 16.63 26.517 16.9944 25.8891 17.2365C25.2613 17.4786 24.5849 17.5929 23.9054 17.5714C23.2585 17.5714 22.6186 17.4468 22.0261 17.2056C21.4336 16.9644 20.9014 16.6118 20.463 16.1701C20.0246 15.7284 19.6895 15.2071 19.4789 14.6391C19.2683 14.0711 19.1867 13.4687 19.2393 12.87C19.2897 12.3037 19.0958 11.742 18.7003 11.3084C18.3048 10.8748 17.7399 10.6048 17.1301 10.5579C16.8276 10.5315 16.5225 10.5614 16.2326 10.6459C15.9428 10.7304 15.674 10.8678 15.4421 11.05C15.2102 11.2322 15.0198 11.4556 14.8821 11.7071C14.7443 11.9585 14.6621 12.2329 14.6401 12.5143L14.5431 13.5857C14.4392 14.6702 13.9033 15.6797 13.0404 16.4168C12.1775 17.1539 11.0495 17.5656 9.87698 17.5714C9.16533 17.5716 8.46301 17.4212 7.82336 17.1315C7.18372 16.8419 6.6236 16.4207 6.18555 15.8999C5.7475 15.3791 5.44306 14.7724 5.29535 14.126C5.14765 13.4796 5.16057 12.8104 5.33313 12.1693Z" fill="#D45971"/>
</g>
<defs>
<clipPath id="clip0_0_579">
<rect width="48" height="48" fill="white"/>
</clipPath>
</defs>
</svg>
