<svg width="40" height="36" viewBox="0 0 40 36" fill="none" xmlns="http://www.w3.org/2000/svg">
<path d="M14 32H20V19.884L12 12.908L4 19.884V32H10V24H14V32ZM38 36H2C1.46957 36 0.960859 35.7893 0.585786 35.4142C0.210714 35.0391 1.19741e-08 34.5304 1.19741e-08 34V18.974C-3.12576e-05 18.6882 0.0611818 18.4058 0.179515 18.1456C0.297849 17.8855 0.470555 17.6538 0.686 17.466L8 11.088V2C8 1.46957 8.21071 0.960859 8.58579 0.585786C8.96086 0.210714 9.46957 0 10 0H38C38.5304 0 39.0391 0.210714 39.4142 0.585786C39.7893 0.960859 40 1.46957 40 2V34C40 34.5304 39.7893 35.0391 39.4142 35.4142C39.0391 35.7893 38.5304 36 38 36ZM28 16V20H32V16H28ZM28 24V28H32V24H28ZM28 8V12H32V8H28ZM20 8V12H24V8H20Z" fill="#D45971"/>
</svg>
