<svg width="48" height="48" viewBox="0 0 48 48" fill="none" xmlns="http://www.w3.org/2000/svg">
<path d="M15.6 25.2L21.6 31.2L32.4 20.4M30.972 7.1712L29.82 5.5896C29.1519 4.67228 28.2764 3.92588 27.265 3.41127C26.2536 2.89666 25.1348 2.62842 24 2.62842C22.8652 2.62842 21.7464 2.89666 20.735 3.41127C19.7236 3.92588 18.8481 4.67228 18.18 5.5896L17.028 7.1712L15.0984 6.8664C13.9771 6.6899 12.83 6.781 11.7506 7.13227C10.6713 7.48354 9.69027 8.08503 8.88765 8.88765C8.08503 9.69027 7.48354 10.6713 7.13227 11.7506C6.781 12.83 6.6899 13.9771 6.8664 15.0984L7.1712 17.028L5.5896 18.18C4.67228 18.8481 3.92588 19.7236 3.41127 20.735C2.89666 21.7464 2.62842 22.8652 2.62842 24C2.62842 25.1348 2.89666 26.2536 3.41127 27.265C3.92588 28.2764 4.67228 29.1519 5.5896 29.82L7.1712 30.972L6.8664 32.9016C6.6899 34.0229 6.781 35.17 7.13227 36.2493C7.48354 37.3287 8.08503 38.3097 8.88765 39.1123C9.69027 39.915 10.6713 40.5165 11.7506 40.8677C12.83 41.219 13.9771 41.3101 15.0984 41.1336L17.028 40.8288L18.18 42.4104C18.8481 43.3277 19.7236 44.0741 20.735 44.5887C21.7464 45.1033 22.8652 45.3716 24 45.3716C25.1348 45.3716 26.2536 45.1033 27.265 44.5887C28.2764 44.0741 29.1519 43.3277 29.82 42.4104L30.972 40.8288L32.9016 41.1336C34.0229 41.3101 35.17 41.219 36.2493 40.8677C37.3287 40.5165 38.3097 39.915 39.1123 39.1123C39.915 38.3097 40.5165 37.3287 40.8677 36.2493C41.219 35.17 41.3101 34.0229 41.1336 32.9016L40.8288 30.972L42.4104 29.82C43.3277 29.1519 44.0741 28.2764 44.5887 27.265C45.1033 26.2536 45.3716 25.1348 45.3716 24C45.3716 22.8652 45.1033 21.7464 44.5887 20.735C44.0741 19.7236 43.3277 18.8481 42.4104 18.18L40.8288 17.028L41.1336 15.0984C41.3101 13.9771 41.219 12.83 40.8677 11.7506C40.5165 10.6713 39.915 9.69027 39.1123 8.88765C38.3097 8.08503 37.3287 7.48354 36.2493 7.13227C35.17 6.781 34.0229 6.6899 32.9016 6.8664L30.972 7.1712Z" stroke="#D45971" stroke-width="2" stroke-linecap="round" stroke-linejoin="round"/>
</svg>
