<svg width="48" height="48" viewBox="0 0 48 48" fill="none" xmlns="http://www.w3.org/2000/svg">
<g clip-path="url(#clip0_0_551)">
<path d="M35.8523 11.0769L25.2923 0.55383C24.5742 -0.170232 23.4055 -0.175032 22.6815 0.543122L22.6708 0.55383L12.1477 11.0769H1.84615C0.826708 11.0769 0 11.9036 0 12.9231V46.1538C0 47.1733 0.826708 48 1.84615 48H46.1538C47.1733 48 48 47.1733 48 46.1538V12.9231C48 11.9036 47.1733 11.0769 46.1538 11.0769H35.8523ZM24 4.46768L30.6092 11.0769H17.3908L24 4.46768ZM44.3077 44.3077H3.69231V14.7692H44.3077V44.3077ZM14.7692 25.8461C12.73 25.8461 11.0769 24.1931 11.0769 22.1538C11.0769 20.1146 12.73 18.4615 14.7692 18.4615C16.8085 18.4615 18.4615 20.1146 18.4615 22.1538C18.4615 24.1931 16.8085 25.8461 14.7692 25.8461ZM40.6154 40.6154H12.9231L18.4615 29.5384L23.0769 38.7692L31.3846 22.1538L40.6154 40.6154Z" fill="#D45971"/>
</g>
<defs>
<clipPath id="clip0_0_551">
<rect width="48" height="48" fill="white"/>
</clipPath>
</defs>
</svg>
