<svg width="48" height="48" viewBox="0 0 48 48" fill="none" xmlns="http://www.w3.org/2000/svg">
<g clip-path="url(#clip0_0_624)">
<path d="M29.988 20C30.048 20 30.108 20.01 30.204 20.02C31.212 20.12 32 20.99 32 22V34C32 35.01 31.212 35.88 30.16 35.984L30 36H16.51L15.384 36.974L10 41.628V36H6C4.916 36 4 35.084 4 34V22C4 20.916 4.916 20 6 20H29.988ZM30 16H6C2.7 16 0 18.7 0 22V34C0 37.3 2.7 40 6 40V46C6 46.78 6.46 47.5 7.16 47.82C7.44 47.94 7.72 48 8 48C8.48 48 8.94 47.84 9.3 47.52L18 40H30C30.2 40 30.42 39.98 30.6 39.96C33.62 39.66 36 37.1 36 34V22C36 18.9 33.62 16.34 30.6 16.04C30.42 16.02 30.2 16 30 16Z" fill="#D45971"/>
<path d="M48 6V18C48 21.3 45.3 24 42 24C40.9 24 40 23.1 40 22C40 20.9 40.9 20 42 20C43.08 20 44 19.08 44 18V6C44 4.92 43.08 4 42 4H18C16.92 4 16 4.92 16 6V10C16 11.1 15.1 12 14 12C12.9 12 12 11.1 12 10V6C12 2.7 14.7 0 18 0H42C45.3 0 48 2.7 48 6Z" fill="#D45971"/>
</g>
<defs>
<clipPath id="clip0_0_624">
<rect width="48" height="48" fill="white"/>
</clipPath>
</defs>
</svg>
